<svg width="180" height="39" viewBox="0 0 180 39" fill="none" xmlns="http://www.w3.org/2000/svg">
<g clip-path="url(#clip0_103_138)">
<path d="M179.941 24.4819C179.979 24.4819 179.999 24.5027 179.999 24.5492V29.0381C179.999 29.0769 179.979 29.1001 179.941 29.1001H179.246C179.205 29.1001 179.185 29.0795 179.185 29.0381V26.4032L178.031 29.064C178.024 29.0873 177.995 29.1001 177.951 29.1001H177.463C177.433 29.1001 177.412 29.0873 177.404 29.064L176.251 26.4032V29.0381C176.251 29.0769 176.229 29.1001 176.184 29.1001H175.482C175.438 29.1001 175.415 29.0795 175.415 29.0381V24.5492C175.415 24.5052 175.438 24.4819 175.482 24.4819H176.136C176.164 24.4819 176.184 24.5001 176.195 24.5362L177.539 27.4919C177.549 27.5073 177.555 27.5306 177.562 27.5642C177.569 27.5979 177.578 27.6237 177.585 27.6444L177.704 28.0607L177.829 27.6444C177.838 27.6237 177.845 27.5979 177.852 27.5642C177.862 27.5332 177.87 27.5073 177.878 27.4919L179.217 24.5362C179.23 24.5001 179.25 24.4819 179.284 24.4819H179.938H179.941ZM174.834 24.4819C174.872 24.4819 174.892 24.5027 174.892 24.5492V25.069C174.892 25.1077 174.872 25.1285 174.834 25.1285H173.419V29.0381C173.419 29.0769 173.399 29.1001 173.358 29.1001H172.663C172.613 29.1001 172.59 29.0795 172.59 29.0381V25.1285H171.192C171.149 25.1285 171.127 25.1077 171.127 25.069V24.5492C171.127 24.5052 171.147 24.4819 171.192 24.4819H174.834Z" fill="#F8F7F2"/>
<path d="M49.6107 8.26422H46.8577C46.491 8.26422 46.272 8.48659 46.272 8.85894L46.2821 11.1835C45.8288 10.2294 45.187 9.47434 44.3619 8.93133C43.2796 8.22285 41.7312 7.86084 39.7626 7.86084C37.0836 7.86084 34.9137 8.89513 33.3118 10.9379C31.7227 12.9677 30.918 15.675 30.918 18.9796C30.918 22.2842 31.7278 24.8933 33.3271 26.8015C34.9341 28.7202 37.0988 29.6924 39.7626 29.6924C41.7338 29.6924 43.2745 29.3614 44.339 28.7072C45.1667 28.1979 45.8186 27.4894 46.2847 26.5921L46.2744 28.6969C46.2744 29.0692 46.4935 29.2916 46.8602 29.2916H49.6132C49.98 29.2916 50.1989 29.0692 50.1989 28.6969V8.85894C50.1989 8.48659 49.98 8.26422 49.6132 8.26422H49.6107ZM36.3653 13.1901C37.2923 11.8222 38.7083 11.1266 40.5801 11.1266C42.4519 11.1266 43.845 11.8196 44.7617 13.1901C45.6964 14.5838 46.1701 16.5334 46.1701 18.9822C46.1701 21.4309 45.7015 23.2564 44.7745 24.5313C43.8603 25.793 42.4493 26.4317 40.5801 26.4317C36.7932 26.4317 34.9519 23.9934 34.9519 18.9822C34.9519 16.5334 35.4281 14.5864 36.3679 13.1927" fill="#F8F7F2"/>
<path d="M70.4324 0H67.8908C67.7202 0 67.5749 0.0594724 67.4604 0.175832C67.3459 0.292191 67.2872 0.439579 67.2872 0.612824V11.5454C66.8416 10.5033 66.2023 9.67331 65.3721 9.06825C64.277 8.26667 62.6752 7.86071 60.6073 7.86071C57.9256 7.86071 55.7533 8.895 54.1463 10.9378C52.552 12.9676 51.7422 15.6748 51.7422 18.982C51.7422 22.2892 52.5547 24.8957 54.159 26.804C55.7736 28.7226 57.9435 29.6949 60.6073 29.6949C62.5783 29.6949 64.1166 29.3638 65.1811 28.7096C66.0088 28.2003 66.6633 27.4866 67.1293 26.5867V28.6994C67.1293 29.0716 67.356 29.2941 67.7329 29.2941H70.4349C70.8144 29.2941 71.0385 29.0716 71.0385 28.6994V0.612824C71.0385 0.439579 70.98 0.292191 70.8628 0.175832C70.7482 0.0594724 70.603 0 70.4324 0ZM57.2049 13.19C58.1293 11.8221 59.5478 11.1265 61.417 11.1265C63.2864 11.1265 64.6769 11.8195 65.5885 13.19C66.5155 14.5837 66.9867 16.5308 66.9867 18.982C66.9867 23.9958 65.1632 26.4316 61.4146 26.4316C57.6658 26.4316 55.7864 23.9958 55.7864 18.982C55.7864 16.5334 56.2627 14.5837 57.2023 13.1925" fill="#F8F7F2"/>
<path d="M83.4728 7.86071C81.6444 7.86071 80.1087 8.2615 78.9117 9.05274C77.9822 9.66556 77.2717 10.4775 76.7903 11.4756V0.612824C76.7903 0.222375 76.5764 0 76.2046 0H73.6248C73.253 0 73.0391 0.224961 73.0391 0.612824V28.6968C73.0391 29.0692 73.2581 29.2915 73.6248 29.2915H76.4848C76.8514 29.2915 77.0705 29.0692 77.0705 28.6968V18.7778C77.0833 16.0161 77.562 14.0252 78.4992 12.859C79.4211 11.7083 80.7963 11.1265 82.5815 11.1265C84.3667 11.1265 85.6324 11.6876 86.3685 12.7943C87.1171 13.9269 87.489 15.9386 87.4762 18.7752L87.438 28.6942C87.438 29.0666 87.6571 29.2889 88.0238 29.2889H90.9219C91.2886 29.2889 91.5076 29.0666 91.5076 28.6942V18.7726C91.4134 11.5299 88.7139 7.85812 83.4779 7.85812" fill="#F8F7F2"/>
<path d="M111.41 8.26422H108.669C108.303 8.26422 108.084 8.48659 108.084 8.85894V11.1939C107.63 10.2372 106.988 9.47693 106.161 8.93135C105.078 8.22285 103.53 7.86084 101.561 7.86084C98.8799 7.86084 96.71 8.89513 95.1108 10.9379C93.5216 12.9677 92.7168 15.6724 92.7168 18.9822C92.7168 22.292 93.5267 24.8959 95.126 26.8041C96.733 28.7228 98.8976 29.695 101.561 29.695C103.533 29.695 105.073 29.364 106.138 28.7098C106.968 28.2005 107.62 27.4894 108.086 26.5869V28.6969C108.086 29.0692 108.305 29.2916 108.672 29.2916H111.412C111.779 29.2916 111.998 29.0692 111.998 28.6969V8.85894C111.998 8.48659 111.779 8.26422 111.412 8.26422H111.41ZM98.1643 13.1901C99.0887 11.8222 100.507 11.1266 102.379 11.1266C104.251 11.1266 105.641 11.8196 106.561 13.1901C107.495 14.5838 107.969 16.5334 107.969 18.9822C107.969 21.4309 107.5 23.2564 106.576 24.5313C105.662 25.793 104.251 26.4317 102.379 26.4317C98.5896 26.4317 96.7482 23.9934 96.7482 18.9822C96.7482 16.536 97.2245 14.5864 98.1643 13.1927" fill="#F8F7F2"/>
<path d="M124.448 7.86084C122.477 7.86084 120.938 8.19181 119.874 8.84601C119.046 9.35541 118.392 10.0691 117.926 10.9715V8.85894C117.926 8.48659 117.699 8.26422 117.319 8.26422H114.602C114.223 8.26422 113.996 8.48659 113.996 8.85894V36.9402C113.996 37.1136 114.055 37.2609 114.169 37.3799C114.284 37.4962 114.434 37.5583 114.602 37.5583H117.141C117.309 37.5583 117.459 37.4962 117.572 37.3799C117.686 37.2635 117.745 37.1162 117.745 36.9402V26.0051C118.193 27.0497 118.837 27.8824 119.673 28.4901C120.775 29.289 122.382 29.695 124.448 29.695C127.132 29.695 129.302 28.6607 130.898 26.6179C132.485 24.5907 133.29 21.8859 133.29 18.5787C133.29 15.2717 132.48 12.66 130.883 10.7543C129.276 8.83567 127.111 7.86343 124.448 7.86343V7.86084ZM129.243 18.5787C129.243 21.0301 128.769 22.9772 127.837 24.3658C126.918 25.7362 125.504 26.4317 123.635 26.4317C121.766 26.4317 120.37 25.7362 119.451 24.3658C118.516 22.9772 118.045 21.0275 118.045 18.5787C118.045 16.1301 118.514 14.302 119.438 13.0246C120.347 11.7653 121.761 11.1266 123.635 11.1266C127.409 11.1266 129.246 13.5624 129.246 18.5763" fill="#F8F7F2"/>
<path d="M144.702 7.86084C142.73 7.86084 141.192 8.19181 140.128 8.84601C139.3 9.35541 138.646 10.0691 138.18 10.9715V8.85894C138.18 8.48659 137.953 8.26422 137.573 8.26422H134.856C134.477 8.26422 134.25 8.48659 134.25 8.85894V36.9402C134.25 37.1136 134.309 37.2609 134.423 37.3799C134.538 37.4962 134.688 37.5583 134.856 37.5583H137.395C137.563 37.5583 137.714 37.4962 137.826 37.3799C137.94 37.2635 138.001 37.1162 138.001 36.9402V26.0051C138.45 27.0497 139.094 27.8824 139.929 28.4901C141.032 29.289 142.639 29.695 144.704 29.695C147.388 29.695 149.558 28.6607 151.155 26.6179C152.742 24.5907 153.546 21.8859 153.546 18.5787C153.546 15.2717 152.736 12.66 151.139 10.7543C149.532 8.83567 147.368 7.86343 144.704 7.86343L144.702 7.86084ZM149.499 18.5787C149.499 21.0301 149.026 22.9772 148.094 24.3658C147.175 25.7362 145.761 26.4317 143.892 26.4317C142.023 26.4317 140.627 25.7362 139.707 24.3658C138.773 22.9772 138.302 21.0275 138.302 18.5787C138.302 16.1301 138.77 14.302 139.695 13.0246C140.604 11.7653 142.017 11.1266 143.892 11.1266C147.666 11.1266 149.502 13.5624 149.502 18.5763" fill="#F8F7F2"/>
<path d="M174.336 8.43462C174.262 8.32603 174.143 8.26137 174.012 8.26137H170.717C170.514 8.26137 170.332 8.3855 170.257 8.57684L163.34 26.129C163.324 25.948 163.291 25.767 163.225 25.5885L156.825 8.58201C156.751 8.3855 156.571 8.25879 156.362 8.25879H153.007C152.878 8.25879 152.758 8.32344 152.684 8.43204C152.611 8.54064 152.595 8.67769 152.641 8.8018L159.515 27.0314C159.817 27.8356 160.572 28.3269 161.371 28.3269C161.608 28.3269 161.848 28.283 162.081 28.1924C162.306 28.1044 162.502 27.9752 162.672 27.8226L159.053 37.0021C159.005 37.1261 159.02 37.2632 159.094 37.3744C159.168 37.4831 159.29 37.5502 159.42 37.5502H163.125C163.333 37.5502 163.516 37.4236 163.59 37.2271L174.379 8.79921C174.426 8.67768 174.41 8.53806 174.336 8.42945" fill="#F8F7F2"/>
<path d="M23.9796 0.483536L14.5415 19.1915L5.10357 0.483536C4.95331 0.186174 4.6528 0 4.32428 0H0.603565C0.432938 0 0.287776 0.0594724 0.175722 0.175832C0.0585739 0.292191 0 0.439579 0 0.61541V28.6968C0 29.0692 0.226655 29.2915 0.603565 29.2915H3.44312C3.76656 29.2915 4.02886 29.0251 4.02886 28.6968V7.53749L12.545 24.4147C12.6443 24.6138 12.8455 24.738 13.0645 24.738H16.0212C16.2402 24.738 16.4414 24.6138 16.5407 24.4147L25.0569 7.53749V28.6968C25.0569 29.0251 25.3192 29.2915 25.6426 29.2915H28.5C28.8234 29.2915 29.0857 29.0251 29.0857 28.6968V0.612824C29.0857 0.222375 28.8719 0 28.5 0H24.7615C24.433 0 24.1299 0.186174 23.9822 0.483536" fill="#F8F7F2"/>
</g>
<defs>
<clipPath id="clip0_103_138">
<rect width="180" height="39" fill="white"/>
</clipPath>
</defs>
</svg>
